<svg xmlns="http://www.w3.org/2000/svg" height="800" width="1200" viewBox="-15.205305 -21.841375 131.77931 131.04825"><path stroke-width=".5216" stroke="#000" d="M32.774 16.6574c-4.7095-1.001-9.3005-4.3555-7.6526-5.415 7.7627-4.917 11.877-.4478 18.07-2.1121 2.0605-.2954 4.598-2.1297 3.4799-.4818-9.2478 6.3082-13.196-2.1965-19.548 2.7696-2.1191 1.3045 2.6969 2.9255 6.239 3.827 6.055 1.5412 12.11-4.3614 14.303-2.8776.8368.5662.7067 1.648.1171 3.2373-1.1182 3.0896-2.8833 4.7681-4.414 6.395-.6002-.749 4.0237-5.3343 2.7672-8.2199-.4137-.9458-4.1.5896-3.944.5298-2.819 1.069-5.2557 3.2326-9.4178 2.3477zm19.93-9.34c.4618-.0657.7009.2543.7653.647.0798.491-.2367.8532-.5297.8532-.354 0-.5005-.177-.6775-.5884-.0293-.382-.0621-.8404.4419-.9118zm-16.12 31.05c.6716-3.2561 1.6714-6.279 1.001-9.535 1.206.3822 1.8882 2.9455 1.9128 3.208.7067 7.5343-4.12 16.717-7.7405 20.984.7653-3.7084 3.8105-9.7341 4.8266-14.657zm13.86 19.69c5.1548 1.328 11.832.0139 16.952-.47-8.241 3.6486-17.806 2.854-25.635.9704-6.1523-.79-9.447-.9705-8.6523-2.3547.2649-2.1484 9.5654-.1465 17.335 1.8542z"/><path stroke-width=".5216" stroke="#000" d="M63.394 41.9274c.048-5.3951 2.568-10.687 1.8835-16.128-13.42 1.295-31.163 6.2519-39.585-1.2072-1.0291-.912.6458-1.9164 1.3244-2.0886 5.0024-1.2741 16.011-3.7671 15.422-2.9431-.0797.1101-1.1662.1558-2.1191.3528-6.1441 1.267-12.008 3.4143-11.772 4.2382-.2356.9412 4.5536 2.6079 6.4746 2.8247 13.193 1.4956 24.34-2.6782 38.626-3.2607.9658-.0375 1.1604-.7595 1.165-1.0947.0329-2.6184-17.865-3.0908-15.746-3.9148-1.1767-.3528 18.541-.2942 17.747 4.2687-.3527 2.8247-7.5856 1.8859-10.006 2.589 1.4945 6.7349-2.6218 13.016-1.5353 19.97.5051 3.2327 1.901 6.0563 3.2127 8.9607-2.5012-1.8542-5.1337-7.7498-5.0915-12.567z"/><path stroke-width=".5216" stroke="#000" d="M43.474 24.4174c-1.3046-.1243-3.1295-.49-3.6054-1.9761-.075-.2356.4618-.674.7935-.3856-.1981-.1735 1.526 1.1264 2.9009 1.1264 7.5635-.001 17.158-.5896 22.043-1.4136.2356 1.4124-14.492 3.3698-22.132 2.6489z"/><path stroke-width=".5216" stroke="#000" d="M49.194 4.1874c4.407 1.4827 6.1218-2.8845 15.481-.647 3.2818.7853 3.726 2.2867 3.0017 3.767-.1934.3962-.2368.7537-.3528 1.0597-2.1191 5.592-5.4748 3.4237-8.5937 8.7203-1.1932 2.0242-1.348 3.5714-1.907 3.9827-1.8543 1.737-1.6257-5.0517 5.4373-8.6418.8837-.5978 2.8259-1.825 2.4145-2.1191-2.745.3633-3.9441.0889-5.0622-.9413-.4208-.3879-.5556.0505-.9354-.4817-.2942-.4125.6904-1.145.817-1.1568.7243-.0726 0 1.1182 1.6772 1.559 1.4757.3879 2.6934.3152 3.9746.0198 1.4417-.3317 1.5882-3.5608.7653-4.1785-1.3807-1.035-5.2392-1.3537-8.977-.382-2.4239.6293-4.673 2.0194-11.972-1.0995-2.8493-1.219-7.077-3.0404-12.839-1.1674-1.199.3903-4.353 1.566-3.9429 2.2363 1.627 2.6606 10.764 1.199 13.538.8838 3.3545-.3833 4.5981 1.6374 3.9511 2.0488-7.2248-2.3664-15.508 2.1684-18.608-2.8142-.7864-1.2647 3.3381-2.8142 5.2392-3.4143 10.242-3.2373 12.054 1.1392 16.893 2.766z"/><path d="M5.884 72.4974c0-.81.1969-3.8738-1.1768-3.8738-.7842 0-1.3725.7349-1.3725 6.3492 0 5.7374.5391 6.3996 1.5202 6.3996 1.2014 0 1.2987-2.4028 1.2987-3.2361H4.9768v-2.5504h3.8737v8.14h-1.348l-.4418-1.152c-.49.7349-1.4217 1.4956-2.5247 1.4956-3.4084 0-4.536-3.3346-4.536-9.072 0-6.668 2.0101-9.0707 4.536-9.0707 2.0593 0 4.1925.9798 4.1925 5.443v1.1277H5.8839m7.0401 5.9599v.5391c0 2.1332.5145 2.574 1.1029 2.574 1.0303 0 1.226-.858 1.4956-1.6914l1.9855.5884c-.4161 2.3043-1.7406 3.4565-3.6768 3.4565-2.2317 0-3.9476-1.6913-3.9476-6.3492 0-4.659 1.7159-6.3503 3.9476-6.3503 2.868.0247 3.6276 3.5303 3.6276 5.9823v1.2506H12.924zm1.839-2.2071v-.3435c0-1.7898-.2696-2.4754-.9565-2.4754-.6376 0-.8825.5873-.8825 2.4754v.3435h1.839m4.091-4.8329h2.8435v1.1768h.0492c.6622-.6857 1.5202-1.3725 2.575-1.3725 1.348 0 1.9856.9318 1.9856 2.5493v9.9545h-2.8435v-8.9242c0-.9318-.3188-1.226-.81-1.226-.3914 0-.7595.2203-.9564.4653v9.6849H18.854v-12.308m11.57 7.0399v.5391c0 2.1332.5145 2.574 1.1029 2.574 1.029 0 1.226-.858 1.4956-1.6914l1.9855.5884c-.4161 2.3043-1.7405 3.4565-3.678 3.4565-2.2305 0-3.9464-1.6913-3.9464-6.3492 0-4.659 1.7159-6.3503 3.9464-6.3503 2.8693.0247 3.6288 3.5303 3.6288 5.9823v1.2506H30.424zm1.839-2.2071v-.3435c0-1.7898-.2708-2.4754-.9565-2.4754-.6376 0-.8825.5873-.8825 2.4754v.3435h1.839m4.091-4.8329h2.8435v2.1578h.0492c.6622-1.0537 1.4956-2.1332 2.8446-2.2316v3.2619c-.3927-.123-.736-.1477-1.1041-.1477-.7103 0-1.5436.613-1.7898 1.1276v8.14h-2.8435v-12.308m6.1301 3.29c0-2.1566 1.3983-3.4811 3.5303-3.4811 3.065 0 3.4823 1.9117 3.4823 3.5795v6.6199c0 .3914.1218 1.5202.2942 2.3043h-2.7954l-.1958-1.1275c-.5883.9798-1.6925 1.3233-2.3043 1.3233-2.0113 0-2.5258-1.8378-2.5258-3.1377 0-2.8927 1.8636-4.659 4.6824-4.8302v-1.3971c0-.9318-.2695-1.1275-.7595-1.1275-.8099 0-.9564.8825-1.0549 1.4956l-2.3536-.2216zm4.1679 3.0158c-1.5448.2695-1.839 1.2014-1.839 2.5985 0 .5637.2461 1.3983 1.0057 1.3983.4418 0 .736-.2696.8333-.4911v-3.5057m4.4121-11.4558h2.8435v17.456H51.064zm8.96.18h4.1996l1.4088 8.861h.048l1.4816-8.861h4.1023v17.285h-2.8165v-12.671h-.048l-2.1367 12.671h-1.7476l-2.1121-12.671h-.0481v12.671H60.024v-17.285m12.99 8.35c0-2.1367 1.3842-3.4471 3.4963-3.4471 3.0346 0 3.447 1.894 3.447 3.5444v6.5543c0 .388.1208 1.5049.2907 2.282h-2.7673l-.1945-1.117c-.5826.9716-1.675 1.3116-2.281 1.3116-1.9913 0-2.5011-1.8214-2.5011-3.1072 0-2.8646 1.8448-4.6133 4.6368-4.7833V74.652c0-.9225-.2673-1.117-.7525-1.117-.8006 0-.947.8743-1.0431 1.4804l-2.3313-.218zm4.1269 2.9865c-1.5296.266-1.8203 1.1885-1.8203 2.5727 0 .5579.2426 1.3842.995 1.3842.4373 0 .728-.2673.8252-.4864v-3.4706m12.0932-5.2264c-.2673-.0974-.6552-.1465-.8498-.1465-.2426 0-.6071.1219-.8498.3164.5826.7279.8252 1.4803.8252 2.4755 0 2.0874-1.383 3.9323-3.5924 3.9323-.34 0-.6798-.0232-.9951-.1207-.218.1207-.2673.3153-.2673.558 0 1.4814 5.7292.2191 5.7292 4.3214 0 1.7476-1.117 3.4717-4.3942 3.4717-3.2279 0-4.1504-1.5788-4.1504-2.3547 0-1.3596 1.0924-1.8449 2.1602-2.2574v-.0492c-.8743-.2426-1.6749-.8497-1.6749-1.8449 0-1.1404.7045-1.7968 1.6022-2.33-1.1897-.8264-1.4804-2.0149-1.4804-3.399 0-1.9423 1.3104-3.787 3.5432-3.787.5591 0 1.1897.0725 1.8941.5825.4607-.9705 1.4323-1.723 2.5-1.845v2.4767zm-4.4668 10.632c-.4372.0725-1.7476.4372-1.7476 1.3116 0 .6071.4372.9705 1.9175.9705 1.2623 0 1.9668-.4372 1.9668-1.1897 0-.776-1.845-1.0678-2.1367-1.0924zm.0725-5.8018c.6563 0 .995-.6552.995-2.1356 0-1.505-.3387-2.1613-.995-2.1613-.6798 0-1.0197.6564-1.0197 2.1613 0 1.4804.3399 2.1356 1.0197 2.1356m5.1243-5.8502h2.8154v12.186H89.964zm0-5.0986h2.8154v2.8165H89.964v-2.8165m8.88 9.5486c-.0481-1.8941-.218-2.5973-.8252-2.5973-.6317 0-.777.7278-.777 4.564 0 3.058.2425 3.787.899 3.787.8497 0 .8977-1.4087 1.0677-2.6711l2.1602.0725c-.048 2.2586-.5098 4.734-3.3744 4.7833-2.2082 0-3.9077-1.6761-3.9077-6.2882 0-4.6122 1.6995-6.287 3.9077-6.287 2.7192 0 3.18 2.1367 3.3744 4.564l-2.5247.0727m-27.31-25.0999h-.7138v-.701h2.2562v.701h-.7138v3.8374h-.8287v-3.8374m2.0901-.7h1.1029l.3692 2.3266h.0129l.3891-2.3266h1.0771v4.5383h-.7395V51.398h-.013l-.5614 3.3276h-.4583l-.5544-3.3276h-.0128v3.3276h-.6118v-4.5383"/></svg>